<svg width="21" height="21" viewBox="0 0 21 21" fill="none" xmlns="http://www.w3.org/2000/svg">
<path d="M19.8752 10.4999C19.5989 10.4999 19.3339 10.6096 19.1386 10.805C18.9432 11.0003 18.8335 11.2653 18.8335 11.5415V17.7915C18.8335 18.0678 18.7237 18.3327 18.5284 18.5281C18.333 18.7234 18.0681 18.8332 17.7918 18.8332H3.2085C2.93223 18.8332 2.66728 18.7234 2.47193 18.5281C2.27658 18.3327 2.16683 18.0678 2.16683 17.7915V3.20819C2.16683 2.93192 2.27658 2.66697 2.47193 2.47162C2.66728 2.27627 2.93223 2.16652 3.2085 2.16652H9.4585C9.73476 2.16652 9.99971 2.05677 10.1951 1.86142C10.3904 1.66607 10.5002 1.40112 10.5002 1.12486C10.5002 0.848588 10.3904 0.583636 10.1951 0.388285C9.99971 0.192935 9.73476 0.0831884 9.4585 0.0831884H3.2085C2.37969 0.0831884 1.58484 0.412429 0.998787 0.99848C0.412736 1.58453 0.0834961 2.37939 0.0834961 3.20819V17.7915C0.0834961 18.6203 0.412736 19.4152 0.998787 20.0012C1.58484 20.5873 2.37969 20.9165 3.2085 20.9165H17.7918C18.6206 20.9165 19.4155 20.5873 20.0015 20.0012C20.5876 19.4152 20.9168 18.6203 20.9168 17.7915V11.5415C20.9168 11.2653 20.8071 11.0003 20.6117 10.805C20.4164 10.6096 20.1514 10.4999 19.8752 10.4999ZM4.25016 11.2915V15.7082C4.25016 15.9845 4.35991 16.2494 4.55526 16.4448C4.75061 16.6401 5.01556 16.7499 5.29183 16.7499H9.7085C9.84559 16.7506 9.98148 16.7244 10.1084 16.6725C10.2353 16.6207 10.3507 16.5443 10.4481 16.4478L17.6564 9.22902L20.6147 6.33319C20.7124 6.23635 20.7899 6.12114 20.8428 5.99421C20.8956 5.86727 20.9229 5.73112 20.9229 5.5936C20.9229 5.45609 20.8956 5.31994 20.8428 5.193C20.7899 5.06607 20.7124 4.95086 20.6147 4.85402L16.1981 0.385272C16.1012 0.287638 15.986 0.210144 15.8591 0.15726C15.7322 0.104376 15.596 0.0771484 15.4585 0.0771484C15.321 0.0771484 15.1848 0.104376 15.0579 0.15726C14.931 0.210144 14.8157 0.287638 14.7189 0.385272L11.7814 3.33319L4.55225 10.5519C4.4557 10.6493 4.37932 10.7647 4.32748 10.8916C4.27565 11.0185 4.24937 11.1544 4.25016 11.2915ZM15.4585 2.5936L18.4064 5.54152L16.9272 7.02069L13.9793 4.07277L15.4585 2.5936ZM6.3335 11.7186L12.5106 5.54152L15.4585 8.48944L9.28141 14.6665H6.3335V11.7186Z" fill="black"/>
</svg>
