    <svg width="25" height="17" viewBox="0 0 25 17" fill="none" xmlns="http://www.w3.org/2000/svg">
<path d="M24.512 8.02441C24.4758 7.94531 23.6203 6.0459 21.7307 4.15625C19.2024 1.63184 16.0159 0.296875 12.5002 0.296875C8.98461 0.296875 5.79808 1.63184 3.27269 4.15625C1.38304 6.0459 0.527575 7.94531 0.488512 8.02441C0.422353 8.17441 0.388184 8.33655 0.388184 8.50049C0.388184 8.66443 0.422353 8.82657 0.488512 8.97656C0.524645 9.05664 1.38011 10.9551 3.27074 12.8447C5.79808 15.3691 8.98461 16.7031 12.5002 16.7031C16.0159 16.7031 19.2024 15.3691 21.7268 12.8447C23.6174 10.9551 24.4729 9.05664 24.509 8.97656C24.5756 8.82677 24.6103 8.66474 24.6108 8.5008C24.6113 8.33686 24.5776 8.17461 24.512 8.02441ZM20.0139 11.2471C17.9172 13.3115 15.3899 14.3594 12.5002 14.3594C9.61058 14.3594 7.08324 13.3115 4.98949 11.2461C4.16561 10.4309 3.45691 9.50699 2.88304 8.5C3.45708 7.49342 4.16576 6.56986 4.98949 5.75488C7.08422 3.68848 9.61058 2.64062 12.5002 2.64062C15.3899 2.64062 17.9162 3.68848 20.011 5.75488C20.8348 6.56979 21.5435 7.49336 22.1174 8.5C21.5435 9.50693 20.8348 10.4308 20.011 11.2461L20.0139 11.2471ZM12.5002 4.20312C11.6504 4.20312 10.8196 4.45513 10.113 4.92728C9.4064 5.39943 8.85566 6.07051 8.53044 6.85566C8.20522 7.64081 8.12012 8.50477 8.28592 9.33828C8.45172 10.1718 8.86095 10.9374 9.46188 11.5383C10.0628 12.1393 10.8284 12.5485 11.662 12.7143C12.4955 12.8801 13.3594 12.795 14.1446 12.4698C14.9297 12.1446 15.6008 11.5938 16.073 10.8872C16.5451 10.1806 16.7971 9.34984 16.7971 8.5C16.7958 7.36079 16.3427 6.26862 15.5372 5.46308C14.7316 4.65754 13.6394 4.20442 12.5002 4.20312ZM12.5002 10.4531C12.1139 10.4531 11.7363 10.3386 11.4151 10.124C11.0939 9.90935 10.8436 9.60432 10.6958 9.24743C10.548 8.89054 10.5093 8.49783 10.5846 8.11896C10.66 7.74009 10.846 7.39208 11.1192 7.11893C11.3923 6.84578 11.7403 6.65977 12.1192 6.5844C12.4981 6.50904 12.8908 6.54772 13.2477 6.69555C13.6045 6.84338 13.9096 7.09371 14.1242 7.4149C14.3388 7.73609 14.4534 8.11371 14.4534 8.5C14.4534 9.018 14.2476 9.51479 13.8813 9.88107C13.515 10.2473 13.0182 10.4531 12.5002 10.4531Z" fill="black"/>
</svg>
